# xmcd CD database file
#
# Track frame offsets:
#	150
#	20595
#	36353
#	56266
#	71799
#	92387
#	118300
#	132130
#	156363
#	170673
#	188681
#	205256
#	222551
#	244609
#
# Disc length: 3430 seconds
#
# Revision: 0
# Processed by: cddbd v1.5.2PL0 Copyright (c) Steve Scherf et al.
# Submitted via: CDex 1.81
#
DISCID=cb0d640e
DTITLE=Postmodern Jukebox - Fake Blues
DYEAR=2017
DGENRE=Jazz
TTITLE0=What Is Love (feat. Casey Abram
TTITLE1=Sledgehammer (feat. Noah Guthri
TTITLE2=Feel Good Inc. (feat. Thia Megi
TTITLE3=All the Small Things (feat. Pud
TTITLE4=Side to Side (feat. DeAndre Bra
TTITLE5=Don't Look Back in Anger (feat.
TTITLE6=Poker Face (feat. Kelley Jakle)
TTITLE7=I Want You to Want Me (feat. Sa
TTITLE8=Thong Song (feat. Ariana Savala
TTITLE9=Spiderwebs (feat. Belle Jewel)
TTITLE10=Sunday Morning (feat. Addie Ham
TTITLE11=Baby One More Time (feat. A
TTITLE12=Nothing Else Matters (feat. Car
TTITLE13=Harry Potter Jazz Variations (f
EXTD=YEAR: 2017
EXTT0=
EXTT1=
EXTT2=
EXTT3=
EXTT4=
EXTT5=
EXTT6=
EXTT7=
EXTT8=
EXTT9=
EXTT10=
EXTT11=
EXTT12=
EXTT13=
PLAYORDER=
